<?xml version="1.0" standalone="no"?>
<!DOCTYPE svg PUBLIC "-//W3C//DTD SVG 20010904//EN"
 "http://www.w3.org/TR/2001/REC-SVG-20010904/DTD/svg10.dtd">
<svg version="1.0" xmlns="http://www.w3.org/2000/svg"
 width="1200.000000pt" height="1200.000000pt" viewBox="0 0 1200.000000 1200.000000"
 preserveAspectRatio="xMidYMid meet">
<metadata>
Created by potrace 1.14, written by Peter Selinger 2001-2017
</metadata>
<g transform="translate(0.000000,1200.000000) scale(0.100000,-0.100000)"
fill="#000000" stroke="none">
<path d="M7073 11578 c18 -101 27 -239 27 -438 1 -219 14 -268 76 -288 469
-150 652 -222 926 -361 402 -205 757 -452 1079 -752 145 -135 307 -302 378
-389 20 -25 38 -47 41 -50 42 -39 224 -285 322 -435 332 -508 548 -1034 666
-1620 62 -305 86 -554 86 -875 0 -170 -9 -392 -19 -451 -2 -13 -6 -48 -9 -77
-8 -72 -37 -259 -52 -337 -30 -159 -128 -529 -164 -619 -5 -12 -28 -73 -51
-136 -23 -63 -70 -179 -105 -257 -64 -145 -67 -153 -65 -189 1 -24 141 -170
264 -277 93 -81 260 -207 273 -207 19 0 188 355 274 575 24 61 49 124 56 140
81 196 223 745 258 1000 3 22 8 56 11 75 9 60 15 103 20 155 3 28 7 68 9 90
27 252 28 778 1 1005 -2 19 -7 58 -10 85 -12 111 -17 146 -40 285 -140 836
-474 1626 -978 2310 -59 80 -229 294 -247 310 -3 3 -41 46 -84 95 -183 208
-519 516 -741 681 -44 32 -82 62 -85 65 -11 14 -311 210 -430 280 -141 85
-373 204 -530 273 -58 26 -114 51 -125 56 -196 89 -606 219 -899 285 -141 32
-140 32 -133 -7z"/>
<path d="M4725 11563 c-122 -28 -441 -129 -610 -193 -388 -148 -770 -347
-1114 -579 -111 -74 -317 -225 -331 -241 -3 -3 -25 -21 -50 -40 -25 -19 -47
-37 -50 -40 -3 -3 -23 -20 -45 -39 -774 -656 -1359 -1552 -1656 -2534 -37
-123 -102 -377 -114 -448 -3 -19 -10 -52 -15 -74 -8 -36 -17 -87 -25 -140 -10
-66 -45 -318 -49 -360 -27 -253 -27 -811 -1 -1020 2 -16 6 -55 9 -85 4 -30 8
-66 10 -80 2 -14 7 -47 11 -73 4 -27 8 -56 10 -65 1 -10 6 -39 9 -67 4 -27 20
-115 37 -195 90 -446 260 -933 471 -1353 84 -166 97 -179 135 -139 50 52 212
230 333 366 19 21 42 46 51 55 9 9 35 38 57 64 l41 48 -25 57 c-180 396 -326
868 -380 1230 -3 20 -7 48 -9 62 -16 105 -31 239 -41 370 -14 179 -8 591 11
760 2 19 7 60 10 90 5 49 38 258 50 322 3 13 8 39 11 58 39 223 183 680 291
925 299 674 723 1240 1283 1710 52 44 111 91 130 105 19 13 37 27 40 30 10 12
179 130 275 192 353 228 689 386 1090 515 225 73 224 72 242 100 12 19 13 31
5 66 -6 23 -14 65 -18 92 -3 28 -9 59 -12 70 -3 11 -6 119 -7 240 -1 122 -5
226 -9 233 -7 12 -16 13 -51 5z"/>
<path d="M4090 8879 c-540 -287 -961 -595 -1176 -861 -32 -40 -62 -75 -65 -78
-23 -21 -110 -164 -129 -215 -13 -35 -2 -27 106 72 124 114 137 125 243 205
190 143 450 284 666 361 134 48 271 87 305 87 30 0 42 -19 59 -100 17 -78 91
-311 133 -420 53 -135 143 -309 222 -429 69 -105 90 -131 111 -131 8 0 47 30
87 66 132 119 245 191 377 238 81 29 206 44 258 30 19 -6 78 -52 149 -119 232
-216 244 -229 244 -262 0 -33 -26 -63 -54 -63 -46 0 -222 125 -348 248 -57 55
-92 81 -100 76 -61 -35 -227 -149 -284 -195 -90 -73 -195 -187 -237 -255 -18
-30 -37 -54 -44 -54 -35 -1 -256 286 -383 497 -70 116 -184 344 -219 438 -13
33 -33 80 -44 105 -34 70 -52 67 -208 -35 -247 -162 -394 -278 -550 -434 -166
-166 -279 -320 -365 -496 -51 -105 -95 -226 -87 -239 3 -5 21 9 40 30 136 155
185 207 328 349 98 98 196 186 252 225 116 81 402 249 425 250 11 0 38 -34 74
-92 56 -91 181 -273 206 -300 7 -7 29 -34 48 -58 109 -142 416 -441 459 -448
10 -1 36 22 66 60 168 211 460 421 562 405 46 -8 409 -231 416 -256 7 -27 -11
-51 -37 -51 -23 0 -118 29 -166 51 -57 26 -127 64 -160 86 -19 13 -45 23 -57
23 -46 0 -339 -280 -488 -465 -53 -65 -89 -101 -104 -103 -22 -4 -58 24 -191
143 -87 78 -338 331 -416 420 -44 50 -117 138 -163 198 -45 59 -88 107 -94
107 -53 0 -408 -328 -491 -453 -160 -242 -343 -633 -381 -813 -2 -10 -13 -57
-24 -104 -11 -47 -23 -110 -27 -140 -7 -50 -6 -54 9 -41 10 7 17 28 17 46 0
18 8 43 19 56 10 13 42 71 70 129 83 166 90 180 157 280 155 235 401 492 581
606 30 20 60 34 68 32 7 -2 60 -48 117 -103 57 -55 139 -131 183 -170 44 -38
85 -74 91 -80 15 -13 96 -77 169 -132 138 -105 308 -214 329 -211 11 2 43 37
77 86 79 113 126 170 239 283 117 118 228 207 266 214 18 4 63 -4 114 -20 53
-17 119 -28 175 -32 102 -5 139 -18 143 -51 3 -16 -4 -25 -23 -32 -35 -13
-170 -13 -255 1 -63 11 -72 10 -113 -10 -93 -45 -346 -334 -467 -533 -41 -68
-58 -88 -75 -88 -35 0 -201 58 -293 102 -173 82 -349 197 -547 357 -55 45
-109 81 -120 81 -40 -1 -116 -89 -134 -155 -5 -22 -13 -52 -16 -67 -4 -23 -11
-28 -35 -28 -20 0 -34 -8 -48 -27 -29 -42 -116 -217 -152 -307 -52 -132 -129
-389 -156 -521 -1 -5 -6 -28 -12 -50 -26 -100 -58 -387 -45 -408 3 -5 45 89
93 209 96 241 121 297 216 489 148 297 204 387 279 447 33 27 65 46 73 43 7
-2 77 -45 155 -93 78 -49 163 -95 190 -102 26 -7 66 -29 90 -49 24 -21 62 -42
89 -49 26 -6 69 -25 96 -42 27 -16 52 -30 56 -30 3 0 28 -9 54 -21 26 -12 56
-25 67 -30 11 -4 47 -20 80 -35 68 -30 109 -33 135 -9 10 9 35 55 56 103 129
295 195 397 370 579 l89 93 182 5 182 5 26 -38 c38 -57 47 -98 33 -146 -9 -33
-45 -74 -189 -216 -108 -106 -186 -193 -201 -220 -21 -41 -23 -58 -23 -175 1
-71 4 -173 8 -225 5 -52 10 -124 12 -160 5 -74 13 -179 20 -260 3 -30 7 -86
10 -125 3 -38 7 -101 10 -140 3 -38 8 -97 10 -131 2 -33 19 -141 39 -240 47
-237 46 -234 53 -272 3 -18 0 -57 -7 -87 -12 -49 -11 -55 9 -83 23 -33 85 -62
134 -62 41 -1 61 -16 77 -62 10 -28 11 -48 4 -81 -8 -35 -7 -48 5 -67 14 -21
13 -24 -8 -41 -55 -45 -101 -14 -101 67 0 41 -4 54 -15 54 -8 0 -15 -3 -16 -7
0 -5 -2 -42 -3 -83 -3 -61 -9 -87 -35 -138 -30 -59 -31 -66 -17 -86 21 -33 75
-61 121 -64 34 -3 48 -11 98 -63 59 -63 66 -81 42 -113 -20 -26 -19 -60 1 -77
20 -16 95 -16 152 0 53 15 63 37 45 104 -28 110 -6 136 87 104 30 -10 35 -17
36 -44 1 -18 2 -42 3 -54 2 -37 62 -86 113 -94 85 -13 110 11 123 120 13 104
14 100 -29 103 -45 4 -85 27 -96 56 -13 34 7 46 74 46 56 0 64 3 83 28 30 41
45 96 48 179 3 81 13 99 62 120 26 10 34 22 43 55 6 24 15 57 20 73 12 43 47
204 66 310 9 50 18 99 20 110 4 23 14 88 20 130 12 94 44 359 49 415 3 36 8
81 10 100 2 19 6 64 9 100 3 36 8 99 11 140 10 124 14 196 20 375 5 165 5 172
-19 220 -31 66 -98 155 -177 236 -210 216 -239 250 -239 279 0 43 58 104 112
118 50 13 67 14 215 13 125 -1 104 9 209 -102 48 -52 177 -203 192 -224 25
-38 49 -84 98 -185 134 -282 136 -285 171 -288 64 -6 542 215 826 383 170 100
168 100 252 17 85 -84 221 -317 328 -563 79 -178 130 -306 188 -466 38 -106
62 -124 54 -40 -12 114 -23 196 -35 262 -5 28 -12 66 -15 85 -11 63 -64 263
-98 370 -77 236 -212 527 -257 553 -16 10 -40 43 -59 80 -30 60 -123 177 -141
177 -5 0 -62 -42 -127 -93 -226 -178 -360 -265 -528 -347 -104 -50 -269 -110
-304 -110 -14 0 -30 15 -47 43 -149 240 -324 449 -466 556 -53 40 -59 42 -110
37 -44 -4 -232 -18 -248 -18 -28 -1 -40 6 -55 29 -17 26 -17 27 5 45 17 14 34
18 59 14 39 -5 143 12 261 44 41 11 82 20 92 20 20 0 159 -109 252 -198 86
-82 205 -223 270 -319 28 -42 57 -73 66 -73 23 0 231 139 371 247 158 123 216
174 381 336 116 114 135 119 222 66 273 -168 530 -493 758 -956 97 -197 108
-190 53 31 -76 306 -222 637 -408 924 -53 81 -77 109 -119 136 -29 18 -60 47
-70 62 -28 48 -141 158 -209 202 -75 50 -108 61 -120 41 -6 -12 -107 -148
-136 -184 -121 -150 -146 -178 -303 -336 -122 -123 -303 -284 -365 -325 -35
-23 -57 -11 -111 59 -124 159 -436 469 -504 501 -14 6 -35 -2 -87 -36 -88 -58
-162 -92 -246 -113 -78 -19 -97 -16 -97 19 0 33 28 57 120 108 41 22 119 70
173 105 113 75 136 79 221 40 110 -51 215 -133 393 -310 68 -66 131 -122 142
-124 38 -5 300 250 459 447 51 63 97 120 102 127 16 20 154 229 182 277 l28
47 32 -17 c18 -9 89 -53 158 -97 143 -92 230 -137 265 -137 18 0 31 -11 51
-45 14 -25 32 -48 39 -53 45 -25 350 -343 460 -480 36 -45 70 -80 75 -77 19
12 -113 290 -207 434 -89 137 -179 247 -304 371 -63 63 -124 122 -135 130 -46
36 -119 95 -124 101 -12 13 -233 161 -320 214 -70 43 -98 55 -110 48 -8 -6
-38 -68 -67 -138 -130 -318 -289 -583 -507 -845 -44 -52 -84 -98 -90 -102 -23
-16 -44 -7 -51 20 -18 74 -115 180 -276 303 -103 78 -247 169 -268 169 -9 0
-59 -42 -111 -93 -181 -176 -315 -251 -364 -201 -35 35 -21 54 171 243 l188
183 85 -5 c208 -15 397 -104 565 -268 40 -40 79 -69 91 -69 33 0 148 168 239
349 81 162 139 325 233 651 19 68 28 80 60 80 35 0 244 -63 355 -107 122 -47
267 -117 346 -164 34 -22 65 -39 67 -39 2 0 38 -23 81 -52 114 -77 256 -191
351 -283 46 -44 88 -82 93 -83 15 -6 1 54 -22 94 -54 96 -236 298 -414 458
-129 117 -408 317 -579 418 -183 107 -167 100 -224 94 -53 -6 -53 -6 -67 28
-20 48 -70 94 -115 106 -76 20 -90 -6 -86 -160 2 -74 -2 -96 -30 -175 -18 -49
-54 -155 -79 -235 -136 -424 -230 -692 -258 -727 -19 -26 -25 -23 -192 82
-283 179 -445 275 -466 275 -36 0 -49 -13 -115 -120 -91 -147 -297 -390 -330
-390 -21 0 -64 60 -64 90 0 18 12 42 31 64 16 19 31 36 31 38 4 12 -47 90 -72
111 -30 26 -68 43 -76 34 -2 -2 3 -23 11 -47 17 -49 11 -108 -12 -117 -8 -3
-41 2 -72 12 -87 28 -163 27 -254 -2 -75 -23 -80 -24 -98 -7 -23 21 -24 46 -3
108 9 26 14 50 10 53 -12 12 -68 -21 -101 -60 -40 -46 -44 -77 -15 -117 25
-35 35 -101 20 -129 -7 -14 -21 -21 -41 -21 -24 0 -43 14 -96 68 -104 105
-248 296 -302 399 -19 38 -44 37 -133 -8 -111 -56 -303 -172 -418 -253 -58
-41 -104 -66 -120 -66 -57 0 -98 81 -175 345 -31 105 -70 233 -87 285 -16 52
-31 102 -33 110 -2 8 -13 47 -25 85 -12 39 -26 85 -31 103 -6 18 -23 44 -38
57 l-27 25 2 132 c1 73 -2 141 -7 150 -15 28 -47 21 -149 -33z"/>
<path d="M5780 2967 c-12 -7 -36 -28 -52 -48 -29 -35 -29 -38 -14 -67 17 -34
61 -53 93 -41 36 13 62 119 35 142 -29 24 -37 26 -62 14z"/>
<path d="M3293 2496 c-63 -68 -103 -113 -193 -216 -41 -47 -77 -87 -80 -90
-45 -43 -147 -169 -142 -176 15 -23 305 -212 418 -274 21 -12 55 -31 74 -42
131 -78 438 -225 640 -306 220 -89 547 -194 740 -237 8 -2 65 -15 126 -29 62
-14 128 -28 149 -32 21 -3 47 -8 59 -10 137 -27 392 -58 591 -71 266 -17 756
-5 945 24 25 3 48 6 51 5 4 -1 62 8 130 18 143 23 183 30 319 56 261 50 757
207 1005 318 28 12 66 29 85 36 67 27 376 183 490 248 231 132 500 311 500
332 0 5 -43 52 -95 104 -160 160 -420 376 -452 376 -8 0 -65 -31 -127 -69
-522 -324 -1069 -539 -1641 -646 -132 -24 -154 -28 -283 -46 -233 -33 -683
-45 -922 -26 -153 12 -180 15 -330 37 -678 99 -1296 332 -1877 707 -113 73
-121 73 -180 9z"/>
</g>
</svg>
